<svg
  xmlns="http://www.w3.org/2000/svg"
  width="1200" height="240" viewBox="0 0 600 120"
 
>

 <path fill-rule="evenodd"  stroke="rgb(28, 47, 46)" stroke-width="0px" stroke-linecap="butt" stroke-linejoin="miter" fill="rgb(98, 0, 233)"
 d="M40.197,7.544 L30.638,18.018 L21.447,33.289 L18.383,38.796 L7.149,59.272 L2.043,68.971 L-0.000,79.100 L1.021,92.680 L7.149,102.379 L15.319,109.641 L23.489,109.641 L32.681,106.689 L42.894,100.223 L52.085,94.371 L59.234,88.369 L67.404,79.100 L70.743,76.620 C71.627,76.959 68.000,96.672 88.851,109.641 L94.979,111.000 L108.255,109.641 L115.404,106.689 L124.596,100.223 L132.766,94.371 L144.000,84.058 L152.170,75.437 L161.362,65.738 L170.440,53.883 L178.723,43.107 L184.912,33.289 L188.936,28.019 L190.979,19.398 L192.000,11.854 L190.979,5.388 L184.912,-0.000 L180.766,-0.000 L175.660,1.078 L171.574,2.748 L165.447,8.621 L162.383,14.010 L159.319,19.398 L155.969,25.864 L153.191,33.289 L149.106,42.029 L141.497,52.806 L137.872,59.272 L131.745,65.738 L127.026,70.049 L121.532,74.359 L117.447,77.592 L112.555,79.100 L108.255,77.592 L102.128,75.437 L100.085,65.738 L100.085,60.350 L103.149,51.728 L108.255,46.340 L111.319,42.029 L115.404,36.641 L118.468,31.252 C120.449,31.095 126.882,21.453 125.617,21.553 L125.617,16.165 L124.596,10.777 L120.511,7.544 L116.426,4.311 L112.555,2.748 L109.277,4.311 L107.234,6.466 L104.170,9.699 L101.106,12.932 L96.000,19.398 L90.894,28.019 L85.787,36.641 L82.723,43.107 L76.596,50.650 L70.468,56.039 L66.383,60.350 L59.234,66.816 L52.085,72.204 L45.957,75.437 L40.197,76.515 L35.745,73.282 L33.702,70.049 L33.702,63.830 L36.766,59.272 L40.197,54.961 L43.915,49.573 L47.1000,44.184 L53.106,35.563 L58.213,28.019 L60.255,23.709 C60.255,23.709 59.964,21.261 60.255,20.476 C60.546,19.691 59.234,16.165 59.234,16.165 L58.213,12.932 L56.170,10.777 L54.669,8.621 L50.043,5.388 L46.979,4.311 L43.915,5.388 L41.872,6.466 L40.197,7.544 Z"/>

  <!-- Текст -->
  <text
    x="220" y="80"
    font-family="VAG World"
    font-weight="bold"
    font-size="53"
    fill="#FFFFFF"
  >Watched It</text>
</svg>
